<svg width="80" height="80" viewBox="0 0 80 80" fill="none" xmlns="http://www.w3.org/2000/svg">
<path d="M73.984 14.508C75.7428 15.1261 77.2662 16.2751 78.3439 17.7963C79.4215 19.3175 80.0002 21.1358 80 23V63C80 67.5087 78.2089 71.8327 75.0208 75.0208C71.8327 78.2089 67.5087 80 63 80H23C21.1358 80.0002 19.3175 79.4215 17.7963 78.3439C16.2751 77.2662 15.1261 75.7428 14.508 73.984L22.896 74H63C65.9174 74 68.7153 72.8411 70.7782 70.7782C72.8411 68.7153 74 65.9174 74 63V23L73.984 22.796V14.508ZM60.984 0C63.3709 0 65.6601 0.948211 67.348 2.63604C69.0358 4.32387 69.984 6.61305 69.984 9V60.988C69.984 63.3749 69.0358 65.6641 67.348 67.352C65.6601 69.0398 63.3709 69.988 60.984 69.988H9C6.61305 69.988 4.32387 69.0398 2.63604 67.352C0.948211 65.6641 0 63.3749 0 60.988V9C0 6.61305 0.948211 4.32387 2.63604 2.63604C4.32387 0.948211 6.61305 0 9 0H60.988H60.984ZM60.984 6H9C8.20435 6 7.44129 6.31607 6.87868 6.87868C6.31607 7.44129 6 8.20435 6 9V60.988C6 62.644 7.344 63.988 9 63.988H60.988C61.7836 63.988 62.5467 63.6719 63.1093 63.1093C63.6719 62.5467 63.988 61.7836 63.988 60.988V9C63.988 8.20435 63.6719 7.44129 63.1093 6.87868C62.5467 6.31607 61.7836 6 60.988 6H60.984ZM30.324 37.432L45.88 21.88C46.416 21.3482 47.1328 21.038 47.8874 21.0114C48.642 20.9849 49.3789 21.2438 49.951 21.7366C50.5231 22.2294 50.8883 22.9199 50.9737 23.6701C51.0592 24.4203 50.8586 25.1752 50.412 25.784L50.12 26.12L32.12 44.12C31.5603 44.6791 30.8024 44.9944 30.0113 44.9974C29.2202 45.0004 28.4599 44.6908 27.896 44.136L27.6 43.8L21.6 35.8C21.1436 35.1944 20.9334 34.4384 21.0118 33.6841C21.0903 32.9299 21.4514 32.2333 22.0227 31.7345C22.5939 31.2358 23.3328 30.9719 24.0908 30.9959C24.8488 31.0199 25.5695 31.3301 26.108 31.864L26.4 32.2L30.324 37.432L45.88 21.88L30.32 37.432H30.324Z" fill="url(#paint0_linear)"/>
<defs>
<linearGradient id="paint0_linear" x1="0" y1="40" x2="80" y2="40">
<stop stop-color="#94302c"/>
<stop offset="1" stop-color="#94302c"/>
</linearGradient>
</defs>
</svg>
