<svg width="186" height="67" viewBox="0 0 186 67" fill="none" xmlns="http://www.w3.org/2000/svg">
<path opacity="0.6" d="M24.4063 46.5H23.4375C23.3802 46.2214 23.2799 45.9766 23.1367 45.7656C22.9961 45.5547 22.8242 45.3776 22.6211 45.2344C22.4206 45.0885 22.1979 44.9792 21.9531 44.9062C21.7083 44.8333 21.4531 44.7969 21.1875 44.7969C20.7031 44.7969 20.2643 44.9193 19.8711 45.1641C19.4805 45.4089 19.1693 45.7695 18.9375 46.2461C18.7083 46.7227 18.5938 47.3073 18.5938 48C18.5938 48.6927 18.7083 49.2773 18.9375 49.7539C19.1693 50.2305 19.4805 50.5911 19.8711 50.8359C20.2643 51.0807 20.7031 51.2031 21.1875 51.2031C21.4531 51.2031 21.7083 51.1667 21.9531 51.0937C22.1979 51.0208 22.4206 50.9128 22.6211 50.7695C22.8242 50.6237 22.9961 50.4453 23.1367 50.2344C23.2799 50.0208 23.3802 49.776 23.4375 49.5H24.4063C24.3333 49.9089 24.2005 50.2747 24.0078 50.5977C23.8151 50.9206 23.5755 51.1953 23.2891 51.4219C23.0026 51.6458 22.681 51.8164 22.3242 51.9336C21.9701 52.0508 21.5911 52.1094 21.1875 52.1094C20.5052 52.1094 19.8984 51.9427 19.3672 51.6094C18.8359 51.276 18.418 50.8021 18.1133 50.1875C17.8086 49.5729 17.6563 48.8437 17.6563 48C17.6563 47.1562 17.8086 46.4271 18.1133 45.8125C18.418 45.1979 18.8359 44.724 19.3672 44.3906C19.8984 44.0573 20.5052 43.8906 21.1875 43.8906C21.5911 43.8906 21.9701 43.9492 22.3242 44.0664C22.681 44.1836 23.0026 44.3555 23.2891 44.582C23.5755 44.806 23.8151 45.0794 24.0078 45.4023C24.2005 45.7227 24.3333 46.0885 24.4063 46.5ZM25.8467 52V46H26.7686V48.6094H27.3779L29.5342 46H30.7217L28.2998 48.8906L30.7529 52H29.5654L27.5967 49.4687H26.7686V52H25.8467ZM33.9453 52.125C33.4036 52.125 32.9284 51.9961 32.5195 51.7383C32.1133 51.4805 31.7956 51.1198 31.5664 50.6562C31.3398 50.1927 31.2266 49.651 31.2266 49.0312C31.2266 48.4062 31.3398 47.8607 31.5664 47.3945C31.7956 46.9284 32.1133 46.5664 32.5195 46.3086C32.9284 46.0508 33.4036 45.9219 33.9453 45.9219C34.487 45.9219 34.9609 46.0508 35.3672 46.3086C35.776 46.5664 36.0938 46.9284 36.3203 47.3945C36.5495 47.8607 36.6641 48.4062 36.6641 49.0312C36.6641 49.651 36.5495 50.1927 36.3203 50.6562C36.0938 51.1198 35.776 51.4805 35.3672 51.7383C34.9609 51.9961 34.487 52.125 33.9453 52.125ZM33.9453 51.2969C34.3568 51.2969 34.6953 51.1914 34.9609 50.9805C35.2266 50.7695 35.4232 50.4922 35.5508 50.1484C35.6784 49.8047 35.7422 49.4323 35.7422 49.0312C35.7422 48.6302 35.6784 48.2565 35.5508 47.9102C35.4232 47.5638 35.2266 47.2839 34.9609 47.0703C34.6953 46.8568 34.3568 46.75 33.9453 46.75C33.5339 46.75 33.1953 46.8568 32.9297 47.0703C32.6641 47.2839 32.4674 47.5638 32.3398 47.9102C32.2122 48.2565 32.1484 48.6302 32.1484 49.0312C32.1484 49.4323 32.2122 49.8047 32.3398 50.1484C32.4674 50.4922 32.6641 50.7695 32.9297 50.9805C33.1953 51.1914 33.5339 51.2969 33.9453 51.2969ZM38.0713 54.25V46H38.9619V46.9531H39.0713C39.139 46.849 39.2327 46.7161 39.3525 46.5547C39.4749 46.3906 39.6494 46.2448 39.876 46.1172C40.1051 45.987 40.415 45.9219 40.8057 45.9219C41.3109 45.9219 41.7562 46.0482 42.1416 46.3008C42.527 46.5534 42.8278 46.9115 43.0439 47.375C43.2601 47.8385 43.3682 48.3854 43.3682 49.0156C43.3682 49.651 43.2601 50.2018 43.0439 50.668C42.8278 51.1315 42.5283 51.4909 42.1455 51.7461C41.7627 51.9987 41.3213 52.125 40.8213 52.125C40.4359 52.125 40.1273 52.0612 39.8955 51.9336C39.6637 51.8034 39.4854 51.6562 39.3604 51.4922C39.2354 51.3255 39.139 51.1875 39.0713 51.0781H38.9932V54.25H38.0713ZM38.9775 49C38.9775 49.4531 39.0439 49.8529 39.1768 50.1992C39.3096 50.543 39.5036 50.8125 39.7588 51.0078C40.014 51.2005 40.3265 51.2969 40.6963 51.2969C41.0817 51.2969 41.4033 51.1953 41.6611 50.9922C41.9215 50.7865 42.1169 50.5104 42.2471 50.1641C42.3799 49.8151 42.4463 49.4271 42.4463 49C42.4463 48.5781 42.3812 48.1979 42.251 47.8594C42.1234 47.5182 41.9294 47.2487 41.6689 47.0508C41.4111 46.8503 41.0869 46.75 40.6963 46.75C40.3213 46.75 40.0062 46.8451 39.751 47.0352C39.4958 47.2227 39.3031 47.4857 39.1729 47.8242C39.0426 48.1602 38.9775 48.5521 38.9775 49ZM46.54 52.1406C46.1598 52.1406 45.8148 52.069 45.5049 51.9258C45.195 51.7799 44.9489 51.5703 44.7666 51.2969C44.5843 51.0208 44.4932 50.6875 44.4932 50.2969C44.4932 49.9531 44.5609 49.6745 44.6963 49.4609C44.8317 49.2448 45.0127 49.0755 45.2393 48.9531C45.4658 48.8307 45.7158 48.7396 45.9893 48.6797C46.2653 48.6172 46.5426 48.5677 46.8213 48.5313C47.1859 48.4844 47.4814 48.4492 47.708 48.4258C47.9372 48.3997 48.1038 48.3568 48.208 48.2969C48.3148 48.237 48.3682 48.1328 48.3682 47.9844V47.9531C48.3682 47.5677 48.2627 47.2682 48.0518 47.0547C47.8434 46.8411 47.527 46.7344 47.1025 46.7344C46.6624 46.7344 46.3174 46.8307 46.0674 47.0234C45.8174 47.2161 45.6416 47.4219 45.54 47.6406L44.665 47.3281C44.8213 46.9635 45.0296 46.6797 45.29 46.4766C45.5531 46.2708 45.8395 46.1276 46.1494 46.0469C46.4619 45.9635 46.7692 45.9219 47.0713 45.9219C47.264 45.9219 47.4854 45.9453 47.7354 45.9922C47.988 46.0365 48.2314 46.1289 48.4658 46.2695C48.7028 46.4102 48.8994 46.6224 49.0557 46.9062C49.2119 47.1901 49.29 47.5703 49.29 48.0469V52H48.3682V51.1875H48.3213C48.2588 51.3177 48.1546 51.457 48.0088 51.6055C47.863 51.7539 47.6689 51.8802 47.4268 51.9844C47.1846 52.0885 46.889 52.1406 46.54 52.1406ZM46.6807 51.3125C47.0452 51.3125 47.3525 51.2409 47.6025 51.0977C47.8551 50.9544 48.0452 50.7695 48.1729 50.543C48.3031 50.3164 48.3682 50.0781 48.3682 49.8281V48.9844C48.3291 49.0312 48.2432 49.0742 48.1104 49.1133C47.9801 49.1497 47.8291 49.1823 47.6572 49.2109C47.488 49.237 47.3226 49.2604 47.1611 49.2812C47.0023 49.2995 46.8734 49.3151 46.7744 49.3281C46.5348 49.3594 46.3109 49.4102 46.1025 49.4805C45.8968 49.5482 45.7301 49.651 45.6025 49.7891C45.4775 49.9245 45.415 50.1094 45.415 50.3437C45.415 50.6641 45.5335 50.9062 45.7705 51.0703C46.0101 51.2318 46.3135 51.3125 46.6807 51.3125ZM54.582 52V46.8438H52.9883C52.6289 46.8438 52.3464 46.9271 52.1406 47.0937C51.9349 47.2604 51.832 47.4896 51.832 47.7812C51.832 48.0677 51.9245 48.293 52.1094 48.457C52.2969 48.6211 52.5534 48.7031 52.8789 48.7031H54.8164V49.5625H52.8789C52.4727 49.5625 52.1224 49.4909 51.8281 49.3477C51.5339 49.2044 51.3073 49 51.1484 48.7344C50.9896 48.4661 50.9102 48.1484 50.9102 47.7812C50.9102 47.4115 50.9935 47.0937 51.1602 46.8281C51.3268 46.5625 51.5651 46.3581 51.875 46.2148C52.1875 46.0716 52.5586 46 52.9883 46H55.457V52H54.582ZM50.582 52L52.2852 49.0156H53.2852L51.582 52H50.582ZM60.2432 52V46H64.9619V52H64.04V46.8594H61.165V52H60.2432ZM69.083 52.125C68.5413 52.125 68.0661 51.9961 67.6572 51.7383C67.251 51.4805 66.9333 51.1198 66.7041 50.6562C66.4775 50.1927 66.3643 49.651 66.3643 49.0312C66.3643 48.4062 66.4775 47.8607 66.7041 47.3945C66.9333 46.9284 67.251 46.5664 67.6572 46.3086C68.0661 46.0508 68.5413 45.9219 69.083 45.9219C69.6247 45.9219 70.0986 46.0508 70.5049 46.3086C70.9137 46.5664 71.2314 46.9284 71.458 47.3945C71.6872 47.8607 71.8018 48.4062 71.8018 49.0312C71.8018 49.651 71.6872 50.1927 71.458 50.6562C71.2314 51.1198 70.9137 51.4805 70.5049 51.7383C70.0986 51.9961 69.6247 52.125 69.083 52.125ZM69.083 51.2969C69.4945 51.2969 69.833 51.1914 70.0986 50.9805C70.3643 50.7695 70.5609 50.4922 70.6885 50.1484C70.8161 49.8047 70.8799 49.4323 70.8799 49.0312C70.8799 48.6302 70.8161 48.2565 70.6885 47.9102C70.5609 47.5638 70.3643 47.2839 70.0986 47.0703C69.833 46.8568 69.4945 46.75 69.083 46.75C68.6715 46.75 68.333 46.8568 68.0674 47.0703C67.8018 47.2839 67.6051 47.5638 67.4775 47.9102C67.3499 48.2565 67.2861 48.6302 67.2861 49.0312C67.2861 49.4323 67.3499 49.8047 67.4775 50.1484C67.6051 50.4922 67.8018 50.7695 68.0674 50.9805C68.333 51.1914 68.6715 51.2969 69.083 51.2969ZM76.4902 50.75L78.584 46H79.459L76.8652 52H76.1152L73.5684 46H74.4277L76.4902 50.75ZM74.1309 46V52H73.209V46H74.1309ZM78.8496 52V46H79.7715V52H78.8496ZM83.8965 52.125C83.3548 52.125 82.8796 51.9961 82.4707 51.7383C82.0645 51.4805 81.7467 51.1198 81.5176 50.6562C81.291 50.1927 81.1777 49.651 81.1777 49.0312C81.1777 48.4062 81.291 47.8607 81.5176 47.3945C81.7467 46.9284 82.0645 46.5664 82.4707 46.3086C82.8796 46.0508 83.3548 45.9219 83.8965 45.9219C84.4382 45.9219 84.9121 46.0508 85.3184 46.3086C85.7272 46.5664 86.0449 46.9284 86.2715 47.3945C86.5007 47.8607 86.6152 48.4062 86.6152 49.0312C86.6152 49.651 86.5007 50.1927 86.2715 50.6562C86.0449 51.1198 85.7272 51.4805 85.3184 51.7383C84.9121 51.9961 84.4382 52.125 83.8965 52.125ZM83.8965 51.2969C84.3079 51.2969 84.6465 51.1914 84.9121 50.9805C85.1777 50.7695 85.3743 50.4922 85.502 50.1484C85.6296 49.8047 85.6934 49.4323 85.6934 49.0312C85.6934 48.6302 85.6296 48.2565 85.502 47.9102C85.3743 47.5638 85.1777 47.2839 84.9121 47.0703C84.6465 46.8568 84.3079 46.75 83.8965 46.75C83.485 46.75 83.1465 46.8568 82.8809 47.0703C82.6152 47.2839 82.4186 47.5638 82.291 47.9102C82.1634 48.2565 82.0996 48.6302 82.0996 49.0312C82.0996 49.4323 82.1634 49.8047 82.291 50.1484C82.4186 50.4922 82.6152 50.7695 82.8809 50.9805C83.1465 51.1914 83.485 51.2969 83.8965 51.2969ZM96.21 51.1406L96.1006 53.7188H95.1475V52H94.3662V51.1406H96.21ZM88.0225 46H88.9443V51.1406H91.21V46H92.1318V51.1406H94.3975V46H95.3193V52H88.0225V46ZM98.3477 48.1719H100.066C100.77 48.1719 101.307 48.3503 101.68 48.707C102.052 49.0638 102.238 49.5156 102.238 50.0625C102.238 50.4219 102.155 50.7487 101.988 51.043C101.822 51.3346 101.577 51.5677 101.254 51.7422C100.931 51.9141 100.535 52 100.066 52H97.5508V46H98.4727V51.1406H100.066C100.431 51.1406 100.73 51.0443 100.965 50.8516C101.199 50.6589 101.316 50.4115 101.316 50.1094C101.316 49.7917 101.199 49.5326 100.965 49.332C100.73 49.1315 100.431 49.0312 100.066 49.0312H98.3477V48.1719Z" fill="#171717"/>
<path d="M25.9886 35H18.7699V14.6364H26.0483C28.0966 14.6364 29.8598 15.044 31.3381 15.8594C32.8163 16.6681 33.9531 17.8314 34.7486 19.3494C35.5507 20.8674 35.9517 22.6837 35.9517 24.7983C35.9517 26.9195 35.5507 28.7424 34.7486 30.267C33.9531 31.7917 32.8097 32.9616 31.3182 33.777C29.8333 34.5923 28.0568 35 25.9886 35ZM23.0753 31.3111H25.8097C27.0824 31.3111 28.1529 31.0857 29.0213 30.6349C29.8963 30.1776 30.5526 29.4716 30.9901 28.517C31.4342 27.5559 31.6562 26.3163 31.6562 24.7983C31.6562 23.2936 31.4342 22.0639 30.9901 21.1094C30.5526 20.1548 29.8996 19.4522 29.0312 19.0014C28.1629 18.5507 27.0923 18.3253 25.8196 18.3253H23.0753V31.3111ZM45.962 35.2983C44.4175 35.2983 43.0818 34.9702 41.9549 34.3139C40.8346 33.651 39.9696 32.7296 39.3597 31.5497C38.7499 30.3632 38.445 28.9877 38.445 27.4233C38.445 25.8456 38.7499 24.4669 39.3597 23.2869C39.9696 22.1004 40.8346 21.179 41.9549 20.5227C43.0818 19.8598 44.4175 19.5284 45.962 19.5284C47.5065 19.5284 48.8389 19.8598 49.9592 20.5227C51.0861 21.179 51.9544 22.1004 52.5643 23.2869C53.1741 24.4669 53.479 25.8456 53.479 27.4233C53.479 28.9877 53.1741 30.3632 52.5643 31.5497C51.9544 32.7296 51.0861 33.651 49.9592 34.3139C48.8389 34.9702 47.5065 35.2983 45.962 35.2983ZM45.9819 32.017C46.6845 32.017 47.2712 31.8182 47.7418 31.4205C48.2125 31.0161 48.5671 30.4659 48.8058 29.7699C49.051 29.0739 49.1737 28.2817 49.1737 27.3935C49.1737 26.5052 49.051 25.7131 48.8058 25.017C48.5671 24.321 48.2125 23.7708 47.7418 23.3665C47.2712 22.9621 46.6845 22.7599 45.9819 22.7599C45.2726 22.7599 44.676 22.9621 44.1921 23.3665C43.7148 23.7708 43.3536 24.321 43.1083 25.017C42.8697 25.7131 42.7504 26.5052 42.7504 27.3935C42.7504 28.2817 42.8697 29.0739 43.1083 29.7699C43.3536 30.4659 43.7148 31.0161 44.1921 31.4205C44.676 31.8182 45.2726 32.017 45.9819 32.017ZM68.9407 24.0824L65.0629 24.321C64.9966 23.9896 64.854 23.6913 64.6353 23.4261C64.4165 23.1544 64.1282 22.9389 63.7702 22.7798C63.4189 22.6141 62.998 22.5312 62.5075 22.5312C61.8512 22.5312 61.2977 22.6705 60.8469 22.9489C60.3962 23.2206 60.1708 23.5852 60.1708 24.0426C60.1708 24.4072 60.3166 24.7154 60.6083 24.9673C60.9 25.2192 61.4005 25.4214 62.1097 25.5739L64.8739 26.1307C66.3588 26.4356 67.4658 26.9261 68.195 27.6023C68.9241 28.2784 69.2887 29.1667 69.2887 30.267C69.2887 31.268 68.9937 32.1463 68.4038 32.902C67.8204 33.6577 67.0183 34.2476 65.9975 34.6719C64.9833 35.0895 63.8133 35.2983 62.4876 35.2983C60.4658 35.2983 58.855 34.8774 57.6552 34.0355C56.462 33.187 55.7627 32.0336 55.5572 30.5753L59.7234 30.3565C59.8493 30.973 60.1542 31.4437 60.6381 31.7685C61.122 32.0866 61.7418 32.2457 62.4975 32.2457C63.2399 32.2457 63.8365 32.1032 64.2873 31.8182C64.7447 31.5265 64.9767 31.152 64.9833 30.6946C64.9767 30.3101 64.8143 29.9953 64.4961 29.75C64.1779 29.4981 63.6874 29.3059 63.0245 29.1733L60.3796 28.6463C58.8881 28.348 57.7778 27.831 57.0487 27.0952C56.3261 26.3594 55.9648 25.4214 55.9648 24.2812C55.9648 23.3002 56.23 22.455 56.7603 21.7457C57.2972 21.0365 58.0496 20.4896 59.0174 20.1051C59.9918 19.7206 61.132 19.5284 62.4379 19.5284C64.3668 19.5284 65.8848 19.9361 66.9918 20.7514C68.1055 21.5668 68.7551 22.6771 68.9407 24.0824Z" fill="#171717"/>
<path d="M72.0355 14.6364H77.3452L82.9531 28.3182H83.1918L88.7997 14.6364H94.1094V35H89.9332V21.7457H89.7642L84.4943 34.9006H81.6506L76.3807 21.696H76.2116V35H72.0355V14.6364ZM104.537 35.2983C102.966 35.2983 101.614 34.9801 100.48 34.3438C99.3536 33.7008 98.4852 32.7926 97.8754 31.6193C97.2655 30.4394 96.9606 29.044 96.9606 27.4332C96.9606 25.8622 97.2655 24.4834 97.8754 23.2969C98.4852 22.1103 99.3436 21.1856 100.451 20.5227C101.564 19.8598 102.87 19.5284 104.368 19.5284C105.376 19.5284 106.314 19.6908 107.182 20.0156C108.057 20.3338 108.819 20.8144 109.469 21.4574C110.125 22.1004 110.636 22.9091 111 23.8835C111.365 24.8513 111.547 25.9848 111.547 27.2841V28.4474H98.6509V25.8224H107.56C107.56 25.2126 107.427 24.6723 107.162 24.2017C106.897 23.7311 106.529 23.3632 106.059 23.098C105.595 22.8262 105.054 22.6903 104.438 22.6903C103.795 22.6903 103.225 22.8395 102.728 23.1378C102.237 23.4295 101.853 23.8239 101.574 24.321C101.296 24.8116 101.153 25.3584 101.147 25.9616V28.4574C101.147 29.2131 101.286 29.866 101.564 30.4162C101.849 30.9664 102.25 31.3906 102.767 31.6889C103.284 31.9872 103.898 32.1364 104.607 32.1364C105.078 32.1364 105.508 32.0701 105.9 31.9375C106.291 31.8049 106.625 31.6061 106.904 31.3409C107.182 31.0758 107.394 30.7509 107.54 30.3665L111.458 30.625C111.259 31.5663 110.851 32.3883 110.235 33.0909C109.625 33.7869 108.836 34.3305 107.868 34.7216C106.907 35.1061 105.797 35.2983 104.537 35.2983ZM119.939 35.2486C118.779 35.2486 117.729 34.9503 116.787 34.3537C115.853 33.7505 115.11 32.8655 114.56 31.6989C114.016 30.5256 113.745 29.0871 113.745 27.3835C113.745 25.6335 114.026 24.1785 114.59 23.0185C115.153 21.8518 115.902 20.9801 116.837 20.4034C117.778 19.8201 118.809 19.5284 119.929 19.5284C120.784 19.5284 121.497 19.6742 122.067 19.9659C122.644 20.2509 123.108 20.6089 123.459 21.0398C123.817 21.464 124.089 21.8816 124.275 22.2926H124.404V14.6364H128.63V35H124.453V32.554H124.275C124.076 32.9782 123.794 33.3991 123.429 33.8168C123.071 34.2277 122.604 34.5691 122.027 34.8409C121.457 35.1127 120.761 35.2486 119.939 35.2486ZM121.282 31.8778C121.964 31.8778 122.541 31.6922 123.012 31.321C123.489 30.9432 123.854 30.4162 124.105 29.7401C124.364 29.0639 124.493 28.2718 124.493 27.3636C124.493 26.4555 124.367 25.6667 124.115 24.9972C123.864 24.3277 123.499 23.8106 123.022 23.446C122.544 23.0814 121.964 22.8991 121.282 22.8991C120.586 22.8991 119.999 23.0881 119.522 23.4659C119.044 23.8437 118.683 24.3674 118.438 25.0369C118.193 25.7064 118.07 26.482 118.07 27.3636C118.07 28.2519 118.193 29.0374 118.438 29.7202C118.69 30.3963 119.051 30.9266 119.522 31.3111C119.999 31.6889 120.586 31.8778 121.282 31.8778Z" fill="#C80D0D"/>
<path d="M42 2L2 2V33.5V65H42" stroke="#C80D0D" stroke-width="3"/>
</svg>
